<svg xmlns="http://www.w3.org/2000/svg" width="1280" height="720" viewBox="0 0 1280 720"><defs>
 <pattern id="shade" width="9" height="9" patternUnits="userSpaceOnUse"><rect width="9" height="9" fill="#888"/><path d="M0 9L9 0" stroke="#444" stroke-width="1"/></pattern>
 <pattern id="sky" width="18" height="6" patternUnits="userSpaceOnUse"><rect width="18" height="6" fill="#eee"/><path d="M0 2H14" stroke="#bbb"/></pattern>
 <pattern id="water" width="60" height="15" patternUnits="userSpaceOnUse"><rect width="60" height="15" fill="#888"/><path d="M0 3H28M33 11H58" stroke="#ddd"/></pattern>
 <pattern id="screen" width="8" height="5" patternUnits="userSpaceOnUse"><rect width="8" height="5" fill="#555"/><path d="M0 2H8" stroke="#777"/></pattern>
 <linearGradient id="mirror"><stop stop-color="#444"/><stop offset=".5" stop-color="#bbb"/><stop offset="1" stop-color="#555"/></linearGradient>
 <radialGradient id="vignette"><stop offset=".45" stop-color="#000" stop-opacity="0"/><stop offset="1" stop-color="#000" stop-opacity=".55"/></radialGradient></defs>
 <polygon points="0,0 1280,0 975,145 305,145" fill="#aaa" stroke="#222" stroke-width="3"/><polygon points="0,0 305,145 305,458 0,720" fill="url(#shade)" stroke="#222" stroke-width="3"/><rect x="305" y="145" width="670" height="313" fill="#d8d8d8" stroke="#222" stroke-width="3"/><polygon points="975,145 1280,0 1280,720 975,458" fill="url(#shade)" stroke="#222" stroke-width="3"/><polygon points="0,720 305,458 975,458 1280,720" fill="#bbb" stroke="#222" stroke-width="3"/><path d="M358 458L-310 720" fill="none" stroke="#333" stroke-width="1"/><path d="M405 458L-155 720" fill="none" stroke="#333" stroke-width="1"/><path d="M452 458L0 720" fill="none" stroke="#333" stroke-width="1"/><path d="M499 458L155 720" fill="none" stroke="#333" stroke-width="1"/><path d="M546 458L310 720" fill="none" stroke="#333" stroke-width="1"/><path d="M593 458L465 720" fill="none" stroke="#333" stroke-width="1"/><path d="M640 458L620 720" fill="none" stroke="#333" stroke-width="1"/><path d="M687 458L775 720" fill="none" stroke="#333" stroke-width="1"/><path d="M734 458L930 720" fill="none" stroke="#333" stroke-width="1"/><path d="M781 458L1085 720" fill="none" stroke="#333" stroke-width="1"/><path d="M828 458L1240 720" fill="none" stroke="#333" stroke-width="1"/><path d="M875 458L1395 720" fill="none" stroke="#333" stroke-width="1"/><path d="M922 458L1550 720" fill="none" stroke="#333" stroke-width="1"/><path d="M0 485L1280 485" fill="none" stroke="#333" stroke-width="1"/><path d="M0 522L1280 522" fill="none" stroke="#333" stroke-width="1"/><path d="M0 575L1280 575" fill="none" stroke="#333" stroke-width="1"/><path d="M0 647L1280 647" fill="none" stroke="#333" stroke-width="1"/><path d="M305 160L975 160" fill="none" stroke="#333" stroke-width="2"/><path d="M315 150L315 450" fill="none" stroke="#333" stroke-width="2"/><path d="M964 150L964 450" fill="none" stroke="#333" stroke-width="2"/><path d="M25 12L305 144" fill="none" stroke="#333" stroke-width="1"/><path d="M95 12L339 144" fill="none" stroke="#333" stroke-width="1"/><path d="M165 12L373 144" fill="none" stroke="#333" stroke-width="1"/><path d="M235 12L407 144" fill="none" stroke="#333" stroke-width="1"/><path d="M305 12L441 144" fill="none" stroke="#333" stroke-width="1"/><path d="M375 12L475 144" fill="none" stroke="#333" stroke-width="1"/><path d="M445 12L509 144" fill="none" stroke="#333" stroke-width="1"/><path d="M515 12L543 144" fill="none" stroke="#333" stroke-width="1"/><path d="M585 12L577 144" fill="none" stroke="#333" stroke-width="1"/><path d="M655 12L611 144" fill="none" stroke="#333" stroke-width="1"/><path d="M725 12L645 144" fill="none" stroke="#333" stroke-width="1"/><path d="M795 12L679 144" fill="none" stroke="#333" stroke-width="1"/><path d="M865 12L713 144" fill="none" stroke="#333" stroke-width="1"/><path d="M935 12L747 144" fill="none" stroke="#333" stroke-width="1"/><path d="M1005 12L781 144" fill="none" stroke="#333" stroke-width="1"/><path d="M1075 12L815 144" fill="none" stroke="#333" stroke-width="1"/><path d="M1145 12L849 144" fill="none" stroke="#333" stroke-width="1"/><path d="M1215 12L883 144" fill="none" stroke="#333" stroke-width="1"/><path d="M374,450 l25,-4 -7,-25 16,-9" fill="none" stroke="#999"/><rect x="325" y="190" width="160" height="270" fill="#aaa" stroke="#222" stroke-width="3"/><rect x="333" y="199" width="68" height="250" fill="url(#shade)" stroke="#222" stroke-width="3"/><rect x="409" y="199" width="68" height="250" fill="url(#shade)" stroke="#222" stroke-width="3"/><circle cx="387" cy="310" r="3" fill="#eee" stroke="#222" stroke-width="3"/><circle cx="421" cy="310" r="3" fill="#eee" stroke="#222" stroke-width="3"/><rect x="505" y="190" width="160" height="270" fill="#aaa" stroke="#222" stroke-width="3"/><rect x="513" y="199" width="68" height="250" fill="url(#shade)" stroke="#222" stroke-width="3"/><rect x="589" y="199" width="68" height="250" fill="url(#shade)" stroke="#222" stroke-width="3"/><circle cx="567" cy="310" r="3" fill="#eee" stroke="#222" stroke-width="3"/><circle cx="601" cy="310" r="3" fill="#eee" stroke="#222" stroke-width="3"/><rect x="685" y="190" width="160" height="270" fill="#aaa" stroke="#222" stroke-width="3"/><rect x="693" y="199" width="68" height="250" fill="url(#shade)" stroke="#222" stroke-width="3"/><rect x="769" y="199" width="68" height="250" fill="url(#shade)" stroke="#222" stroke-width="3"/><circle cx="747" cy="310" r="3" fill="#eee" stroke="#222" stroke-width="3"/><circle cx="781" cy="310" r="3" fill="#eee" stroke="#222" stroke-width="3"/><path d="M310 515L975 515" fill="none" stroke="#333" stroke-width="5"/><polygon points="380,330 350,355 340,455 420,455 410,355" fill="#ccc" stroke="#222" stroke-width="3"/><polygon points="550,330 520,355 510,455 590,455 580,355" fill="#ccc" stroke="#222" stroke-width="3"/><polygon points="720,330 690,355 680,455 760,455 750,355" fill="#ccc" stroke="#222" stroke-width="3"/><polygon points="890,330 860,355 850,455 930,455 920,355" fill="#ccc" stroke="#222" stroke-width="3"/><rect width="1280" height="720" fill="url(#vignette)"/><rect x="12" y="12" width="1256" height="696" fill="none" stroke="#eee" stroke-width="2"/><path d="M22 35V22H60M1220 22H1258V60M22 660V698H60M1220 698H1258V660" fill="none" stroke="#eee" stroke-width="3"/></svg>